<svg width="22" height="22" viewBox="0 0 22 22" fill="none" xmlns="http://www.w3.org/2000/svg">
<g clip-path="url(#clip0_3_375)">
<path d="M0 16.7934C0 12.9203 0 9.04728 0 5.1752C0.169767 5.03881 0.131496 4.82587 0.177617 4.6512C0.68103 2.70143 1.86449 1.3355 3.6809 0.492596C4.19118 0.256111 4.75641 0.208029 5.27258 0C9.04769 0 12.8238 0 16.5989 0C16.6313 0.029438 16.6607 0.0794826 16.696 0.0843889C19.6821 0.50339 21.8773 2.84077 21.9431 5.86503C22.0167 9.27788 22.0216 12.6956 21.9421 16.1085C21.8675 19.3192 19.3652 21.8518 16.1573 21.9352C12.7119 22.0255 9.26161 22.0147 5.81623 21.9372C3.0401 21.8754 0.837058 19.9678 0.166823 17.2703C0.12757 17.1123 0.175655 16.9082 0 16.7934ZM20.0129 11.0255C20.0129 9.31713 20.0354 7.60874 20.007 5.90134C19.9716 3.7818 18.1915 1.98118 16.0768 1.96351C12.6933 1.93506 9.3097 1.93408 5.92614 1.96253C3.77216 1.9802 1.98225 3.7661 1.9636 5.91508C1.93514 9.29848 1.93514 12.6819 1.9636 16.0653C1.98127 18.1848 3.77707 19.9845 5.89179 20.0031C9.27535 20.0316 12.6589 20.0326 16.0425 20.0041C18.1964 19.9864 19.9716 18.1996 20.0079 16.0516C20.0354 14.3775 20.0129 12.7015 20.0129 11.0255Z" fill="white"/>
<path d="M16.6243 11.0295C16.6008 14.1597 14.0837 16.6413 10.9513 16.6237C7.80036 16.606 5.30881 14.0684 5.34512 10.9147C5.38143 7.7854 7.9083 5.31555 11.0416 5.34499C14.171 5.37541 16.6479 7.89726 16.6243 11.0295ZM14.7029 11.0815C14.7834 9.07576 13.1436 7.34873 11.0819 7.26631C9.07606 7.18584 7.34895 8.82554 7.26652 10.8872C7.18606 12.8929 8.82583 14.6199 10.8876 14.7023C12.8934 14.7818 14.6205 13.1431 14.7029 11.0815Z" fill="white"/>
<path d="M18.2955 5.08387C18.3034 5.87575 17.6743 6.51848 16.8883 6.52338C16.117 6.52731 15.4507 5.86397 15.4566 5.0976C15.4625 4.32927 16.0797 3.70715 16.8491 3.69341C17.6547 3.67771 18.2877 4.28708 18.2955 5.08387Z" fill="white"/>
</g>
<defs>
<clipPath id="clip0_3_375">
<rect width="22" height="22" fill="white"/>
</clipPath>
</defs>
</svg>
